<?xml version="1.0" encoding="UTF-8" standalone="no"?>
<!DOCTYPE svg PUBLIC "-//W3C//DTD SVG 1.1//EN"
 "http://www.w3.org/Graphics/SVG/1.1/DTD/svg11.dtd">
<!-- Generated by graphviz version 12.1.1 (20240910.0053)
 -->
<!-- Title: INFRA Pages: 1 -->
<svg width="694pt" height="404pt"
 viewBox="0.00 0.00 693.71 404.00" xmlns="http://www.w3.org/2000/svg" xmlns:xlink="http://www.w3.org/1999/xlink">
<g id="graph0" class="graph" transform="scale(1 1) rotate(0) translate(4 400)">
<title>INFRA</title>
<polygon fill="white" stroke="none" points="-4,4 -4,-400 689.71,-400 689.71,4 -4,4"/>
<!-- snapshot&#45;inventory&#45;lambda -->
<g id="node1" class="node">
<title>snapshot&#45;inventory&#45;lambda</title>
<path fill="#b7e0ff" stroke="black" stroke-width="2" d="M430.49,-180C430.49,-180 269.62,-180 269.62,-180 263.62,-180 257.62,-174 257.62,-168 257.62,-168 257.62,-120 257.62,-120 257.62,-114 263.62,-108 269.62,-108 269.62,-108 430.49,-108 430.49,-108 436.49,-108 442.49,-114 442.49,-120 442.49,-120 442.49,-168 442.49,-168 442.49,-174 436.49,-180 430.49,-180"/>
<text text-anchor="middle" x="350.05" y="-148.2" font-family="Arial" font-size="14.00">snapshot&#45;inventory&#45;lambda</text>
<text text-anchor="middle" x="350.05" y="-131.4" font-family="Arial" font-size="14.00">(AWS::Lambda::Function)</text>
</g>
<!-- snapshot&#45;inventory&#45;s3&#45;bucket -->
<g id="node2" class="node">
<title>snapshot&#45;inventory&#45;s3&#45;bucket</title>
<path fill="#fff5cd" stroke="black" stroke-width="2" d="M448.88,-65.45C448.88,-69.07 404.13,-72 349.05,-72 293.97,-72 249.23,-69.07 249.23,-65.45 249.23,-65.45 249.23,-6.55 249.23,-6.55 249.23,-2.93 293.97,0 349.05,0 404.13,0 448.88,-2.93 448.88,-6.55 448.88,-6.55 448.88,-65.45 448.88,-65.45"/>
<path fill="none" stroke="black" stroke-width="2" d="M448.88,-65.45C448.88,-61.84 404.13,-58.91 349.05,-58.91 293.97,-58.91 249.23,-61.84 249.23,-65.45"/>
<text text-anchor="middle" x="349.05" y="-40.2" font-family="Arial" font-size="14.00">snapshot&#45;inventory&#45;s3&#45;bucket</text>
<text text-anchor="middle" x="349.05" y="-23.4" font-family="Arial" font-size="14.00">(AWS::S3::Bucket)</text>
</g>
<!-- snapshot&#45;inventory&#45;lambda&#45;&gt;snapshot&#45;inventory&#45;s3&#45;bucket -->
<g id="edge1" class="edge">
<title>snapshot&#45;inventory&#45;lambda&#45;&gt;snapshot&#45;inventory&#45;s3&#45;bucket</title>
<path fill="none" stroke="black" d="M349.72,-107.7C349.64,-99.93 349.57,-91.57 349.49,-83.43"/>
<polygon fill="black" stroke="black" points="352.99,-83.62 349.4,-73.66 345.99,-83.69 352.99,-83.62"/>
</g>
<!-- snapshot&#45;inventory&#45;sns&#45;topic -->
<g id="node3" class="node">
<title>snapshot&#45;inventory&#45;sns&#45;topic</title>
<path fill="#cce0ac" stroke="black" stroke-width="2" d="M212.54,-72C212.54,-72 41.57,-72 41.57,-72 35.57,-72 29.57,-66 29.57,-60 29.57,-60 29.57,-12 29.57,-12 29.57,-6 35.57,0 41.57,0 41.57,0 212.54,0 212.54,0 218.54,0 224.54,-6 224.54,-12 224.54,-12 224.54,-60 224.54,-60 224.54,-66 218.54,-72 212.54,-72"/>
<text text-anchor="middle" x="127.05" y="-40.2" font-family="Arial" font-size="14.00">snapshot&#45;inventory&#45;sns&#45;topic</text>
<text text-anchor="middle" x="127.05" y="-23.4" font-family="Arial" font-size="14.00">(AWS::SNS::Topic)</text>
</g>
<!-- snapshot&#45;inventory&#45;lambda&#45;&gt;snapshot&#45;inventory&#45;sns&#45;topic -->
<g id="edge2" class="edge">
<title>snapshot&#45;inventory&#45;lambda&#45;&gt;snapshot&#45;inventory&#45;sns&#45;topic</title>
<path fill="none" stroke="black" d="M275.49,-107.56C255.03,-97.83 232.7,-87.22 211.72,-77.25"/>
<polygon fill="black" stroke="black" points="213.45,-74.19 202.91,-73.06 210.44,-80.51 213.45,-74.19"/>
</g>
<!-- snapshot&#45;inventory&#45;lambda&#45;role -->
<g id="node4" class="node">
<title>snapshot&#45;inventory&#45;lambda&#45;role</title>
<path fill="#e6e6e6" stroke="black" stroke-width="2" d="M667.49,-72C667.49,-72 478.61,-72 478.61,-72 472.61,-72 466.61,-66 466.61,-60 466.61,-60 466.61,-12 466.61,-12 466.61,-6 472.61,0 478.61,0 478.61,0 667.49,0 667.49,0 673.49,0 679.49,-6 679.49,-12 679.49,-12 679.49,-60 679.49,-60 679.49,-66 673.49,-72 667.49,-72"/>
<text text-anchor="middle" x="573.05" y="-40.2" font-family="Arial" font-size="14.00">snapshot&#45;inventory&#45;lambda&#45;role</text>
<text text-anchor="middle" x="573.05" y="-23.4" font-family="Arial" font-size="14.00">(AWS::IAM::Role)</text>
</g>
<!-- snapshot&#45;inventory&#45;lambda&#45;&gt;snapshot&#45;inventory&#45;lambda&#45;role -->
<g id="edge3" class="edge">
<title>snapshot&#45;inventory&#45;lambda&#45;&gt;snapshot&#45;inventory&#45;lambda&#45;role</title>
<path fill="none" stroke="black" d="M424.62,-107.56C445.07,-97.83 467.4,-87.22 488.38,-77.25"/>
<polygon fill="black" stroke="black" points="489.66,-80.51 497.19,-73.06 486.65,-74.19 489.66,-80.51"/>
</g>
<!-- snapshot&#45;inventory&#45;lambda&#45;policy -->
<g id="node5" class="node">
<title>snapshot&#45;inventory&#45;lambda&#45;policy</title>
<path fill="#e6e6e6" stroke="black" stroke-width="2" d="M673.71,-180C673.71,-180 472.39,-180 472.39,-180 466.39,-180 460.39,-174 460.39,-168 460.39,-168 460.39,-120 460.39,-120 460.39,-114 466.39,-108 472.39,-108 472.39,-108 673.71,-108 673.71,-108 679.71,-108 685.71,-114 685.71,-120 685.71,-120 685.71,-168 685.71,-168 685.71,-174 679.71,-180 673.71,-180"/>
<text text-anchor="middle" x="573.05" y="-148.2" font-family="Arial" font-size="14.00">snapshot&#45;inventory&#45;lambda&#45;policy</text>
<text text-anchor="middle" x="573.05" y="-131.4" font-family="Arial" font-size="14.00">(AWS::IAM::Policy)</text>
</g>
<!-- snapshot&#45;inventory&#45;lambda&#45;policy&#45;&gt;snapshot&#45;inventory&#45;lambda&#45;role -->
<g id="edge4" class="edge">
<title>snapshot&#45;inventory&#45;lambda&#45;policy&#45;&gt;snapshot&#45;inventory&#45;lambda&#45;role</title>
<path fill="none" stroke="black" d="M573.05,-107.7C573.05,-99.93 573.05,-91.57 573.05,-83.43"/>
<polygon fill="black" stroke="black" points="576.55,-83.66 573.05,-73.66 569.55,-83.66 576.55,-83.66"/>
</g>
<!-- snapshot&#45;inventory&#45;eventbridge&#45;rule -->
<g id="node6" class="node">
<title>snapshot&#45;inventory&#45;eventbridge&#45;rule</title>
<path fill="#cce0ac" stroke="black" stroke-width="2" d="M458.11,-288C458.11,-288 241.99,-288 241.99,-288 235.99,-288 229.99,-282 229.99,-276 229.99,-276 229.99,-228 229.99,-228 229.99,-222 235.99,-216 241.99,-216 241.99,-216 458.11,-216 458.11,-216 464.11,-216 470.11,-222 470.11,-228 470.11,-228 470.11,-276 470.11,-276 470.11,-282 464.11,-288 458.11,-288"/>
<text text-anchor="middle" x="350.05" y="-256.2" font-family="Arial" font-size="14.00">snapshot&#45;inventory&#45;eventbridge&#45;rule</text>
<text text-anchor="middle" x="350.05" y="-239.4" font-family="Arial" font-size="14.00">(AWS::Events::Rule)</text>
</g>
<!-- snapshot&#45;inventory&#45;eventbridge&#45;rule&#45;&gt;snapshot&#45;inventory&#45;lambda -->
<g id="edge5" class="edge">
<title>snapshot&#45;inventory&#45;eventbridge&#45;rule&#45;&gt;snapshot&#45;inventory&#45;lambda</title>
<path fill="none" stroke="black" d="M350.05,-215.7C350.05,-207.93 350.05,-199.57 350.05,-191.43"/>
<polygon fill="black" stroke="black" points="353.55,-191.66 350.05,-181.66 346.55,-191.66 353.55,-191.66"/>
</g>
<!-- snapshot&#45;inventory&#45;eventbridge&#45;target -->
<g id="node7" class="node">
<title>snapshot&#45;inventory&#45;eventbridge&#45;target</title>
<path fill="#cce0ac" stroke="black" stroke-width="2" d="M327.34,-396C327.34,-396 98.76,-396 98.76,-396 92.76,-396 86.76,-390 86.76,-384 86.76,-384 86.76,-336 86.76,-336 86.76,-330 92.76,-324 98.76,-324 98.76,-324 327.34,-324 327.34,-324 333.34,-324 339.34,-330 339.34,-336 339.34,-336 339.34,-384 339.34,-384 339.34,-390 333.34,-396 327.34,-396"/>
<text text-anchor="middle" x="213.05" y="-364.2" font-family="Arial" font-size="14.00">snapshot&#45;inventory&#45;eventbridge&#45;target</text>
<text text-anchor="middle" x="213.05" y="-347.4" font-family="Arial" font-size="14.00">(AWS::Events::Target)</text>
</g>
<!-- snapshot&#45;inventory&#45;eventbridge&#45;target&#45;&gt;snapshot&#45;inventory&#45;lambda -->
<g id="edge7" class="edge">
<title>snapshot&#45;inventory&#45;eventbridge&#45;target&#45;&gt;snapshot&#45;inventory&#45;lambda</title>
<path fill="none" stroke="black" d="M206.01,-323.51C201.88,-292.69 200.85,-248.09 221.05,-216 228.13,-204.76 237.64,-195.16 248.32,-186.99"/>
<polygon fill="black" stroke="black" points="250.16,-189.98 256.29,-181.34 246.11,-184.27 250.16,-189.98"/>
</g>
<!-- snapshot&#45;inventory&#45;eventbridge&#45;target&#45;&gt;snapshot&#45;inventory&#45;eventbridge&#45;rule -->
<g id="edge6" class="edge">
<title>snapshot&#45;inventory&#45;eventbridge&#45;target&#45;&gt;snapshot&#45;inventory&#45;eventbridge&#45;rule</title>
<path fill="none" stroke="black" d="M258.67,-323.7C270.57,-314.5 283.51,-304.48 295.81,-294.97"/>
<polygon fill="black" stroke="black" points="297.67,-297.96 303.43,-289.07 293.38,-292.42 297.67,-297.96"/>
</g>
<!-- snapshot&#45;inventory&#45;lambda&#45;permission -->
<g id="node8" class="node">
<title>snapshot&#45;inventory&#45;lambda&#45;permission</title>
<path fill="#e6e6e6" stroke="black" stroke-width="2" d="M608.66,-396C608.66,-396 375.44,-396 375.44,-396 369.44,-396 363.44,-390 363.44,-384 363.44,-384 363.44,-336 363.44,-336 363.44,-330 369.44,-324 375.44,-324 375.44,-324 608.66,-324 608.66,-324 614.66,-324 620.66,-330 620.66,-336 620.66,-336 620.66,-384 620.66,-384 620.66,-390 614.66,-396 608.66,-396"/>
<text text-anchor="middle" x="492.05" y="-364.2" font-family="Arial" font-size="14.00">snapshot&#45;inventory&#45;lambda&#45;permission</text>
<text text-anchor="middle" x="492.05" y="-347.4" font-family="Arial" font-size="14.00">(AWS::Lambda::Permission)</text>
</g>
<!-- snapshot&#45;inventory&#45;lambda&#45;permission&#45;&gt;snapshot&#45;inventory&#45;lambda -->
<g id="edge8" class="edge">
<title>snapshot&#45;inventory&#45;lambda&#45;permission&#45;&gt;snapshot&#45;inventory&#45;lambda</title>
<path fill="none" stroke="black" d="M497.57,-323.68C500.49,-292.77 499.93,-247.92 479.05,-216 471.67,-204.72 461.86,-195.07 450.93,-186.86"/>
<polygon fill="black" stroke="black" points="452.96,-184.01 442.76,-181.17 448.96,-189.76 452.96,-184.01"/>
</g>
<!-- snapshot&#45;inventory&#45;lambda&#45;permission&#45;&gt;snapshot&#45;inventory&#45;eventbridge&#45;rule -->
<g id="edge9" class="edge">
<title>snapshot&#45;inventory&#45;lambda&#45;permission&#45;&gt;snapshot&#45;inventory&#45;eventbridge&#45;rule</title>
<path fill="none" stroke="black" d="M444.77,-323.7C432.43,-314.5 419.02,-304.48 406.27,-294.97"/>
<polygon fill="black" stroke="black" points="408.45,-292.22 398.34,-289.05 404.26,-297.83 408.45,-292.22"/>
</g>
<!-- snapshot&#45;inventory&#45;sns&#45;subscription -->
<g id="node9" class="node">
<title>snapshot&#45;inventory&#45;sns&#45;subscription</title>
<path fill="#cce0ac" stroke="black" stroke-width="2" d="M228.1,-180C228.1,-180 12,-180 12,-180 6,-180 0,-174 0,-168 0,-168 0,-120 0,-120 0,-114 6,-108 12,-108 12,-108 228.1,-108 228.1,-108 234.1,-108 240.1,-114 240.1,-120 240.1,-120 240.1,-168 240.1,-168 240.1,-174 234.1,-180 228.1,-180"/>
<text text-anchor="middle" x="120.05" y="-148.2" font-family="Arial" font-size="14.00">snapshot&#45;inventory&#45;sns&#45;subscription</text>
<text text-anchor="middle" x="120.05" y="-131.4" font-family="Arial" font-size="14.00">(AWS::SNS::Subscription)</text>
</g>
<!-- snapshot&#45;inventory&#45;sns&#45;subscription&#45;&gt;snapshot&#45;inventory&#45;sns&#45;topic -->
<g id="edge10" class="edge">
<title>snapshot&#45;inventory&#45;sns&#45;subscription&#45;&gt;snapshot&#45;inventory&#45;sns&#45;topic</title>
<path fill="none" stroke="black" d="M122.38,-107.7C122.9,-99.93 123.45,-91.57 123.99,-83.43"/>
<polygon fill="black" stroke="black" points="127.46,-83.86 124.63,-73.65 120.48,-83.4 127.46,-83.86"/>
</g>
</g>
</svg>
